<?xml version="1.0" encoding="UTF-8"?>
<svg preserveAspectRatio="xMidYMid slice" width="130px" height="25px" xmlns="http://www.w3.org/2000/svg" xmlns:xlink="http://www.w3.org/1999/xlink" version="1.1" x="0px" y="0px" viewBox="0 0 1485 281.1" style="enable-background:new 0 0 1485 281.1;" xml:space="preserve">
<style type="text/css">
	.st0{display:none;}
	.st1{display:inline;}
	.st2{fill:#221C69;}
	.st3{fill:#4463DF;}
</style>
<g id="Layer_1" class="st0">
	<g class="st1">
		<g>
			<path class="st2" d="M982.8,121.9c0-14-5.5-27.1-15.4-37s-23-15.3-37-15.4H911c-0.5,0-1,0-1.5,0.1h-29.3c-14,0-27.1,5.5-37,15.4     c-8,8-13.1,18.1-14.8,29h19.1c0.5,0,1-0.1,1.5-0.1h19.4c14,0,27.1,5.5,37,15.4s15.3,23,15.4,37"></path>
		</g>
		<g>
			<path class="st2" d="M920.8,166.4c0,2.7-0.2,5.4-0.6,8h10.2c14,0,27.1-5.5,37-15.4s15.3-23,15.4-37"></path>
		</g>
		<g>
			<path class="st3" d="M765.8,166.4c0,14,5.5,27.1,15.4,37s23,15.3,37,15.4H849c0.5,0,1,0,1.5-0.1h17.9c14,0,27.1-5.5,37-15.4     c8-8,13.1-18.1,14.8-29.1h-7.7c-0.5,0-1,0.1-1.5,0.1h-30.8c-14,0-27.1-5.5-37-15.4c-9.9-9.9-15.3-23-15.4-37"></path>
		</g>
		<g>
			<path class="st3" d="M827.8,122c0-2.7,0.2-5.3,0.6-8h-10.2c-14,0-27.1,5.5-37,15.4s-15.3,23-15.4,37"></path>
		</g>
		<path class="st3" d="M93.8,209.5c-8.8-3.7-15.5-8.6-20.1-14.7s-7-12.6-7.2-19.7c0-1.2,0.4-2.3,1.2-3.1s1.9-1.2,3.1-1.2h18.4    c1.7,0,2.9,0.3,3.8,0.9s1.8,1.6,2.6,3c1.4,4.7,4.6,8.6,9.5,11.8s11.7,4.8,20.3,4.8c9.8,0,17.2-1.6,22.2-4.9    c5-3.2,7.5-7.8,7.5-13.6c0-3.9-1.3-7-3.8-9.5c-2.6-2.5-6.4-4.6-11.4-6.4c-5-1.8-12.5-4-22.5-6.6c-16.3-3.9-28.2-9-35.7-15.4    c-7.5-6.4-11.3-15.6-11.3-27.4c0-8,2.2-15.1,6.5-21.3c4.3-6.2,10.6-11.1,18.8-14.7s17.8-5.4,28.7-5.4c11.3,0,21.1,2,29.4,6    s14.6,9,19,15s6.7,12,6.9,17.9c0,1.2-0.4,2.3-1.2,3.1s-1.9,1.2-3.1,1.2h-19.3c-2.9,0-4.9-1.3-6-3.9c-0.8-4.4-3.6-8.1-8.3-11.1    s-10.5-4.4-17.4-4.4c-7.7,0-13.8,1.4-18.2,4.3c-4.4,2.9-6.6,7.1-6.6,12.6c0,3.9,1.1,7,3.3,9.5c2.2,2.5,5.7,4.7,10.5,6.6    c4.8,1.9,11.6,4.1,20.6,6.4c12.1,2.8,21.9,5.9,29.1,9.3s12.6,7.8,16.1,13.1c3.4,5.2,5.2,11.9,5.2,20.1c0,8.8-2.4,16.5-7.4,23.1    c-4.9,6.6-11.8,11.6-20.7,15s-19.2,5.2-30.8,5.2C113.2,215.1,102.6,213.3,93.8,209.5z"></path>
		<path class="st3" d="M209.6,211.7c-1-0.9-1.4-2.1-1.4-3.6V73.2c0-1.5,0.5-2.8,1.4-3.7c1-1,2.2-1.4,3.7-1.4h16.4    c2.9,0,5,1.3,6.2,3.9l40,74.6L316.3,72c1.4-2.6,3.5-3.9,6.2-3.9h16.2c1.5,0,2.8,0.5,3.7,1.4c1,1,1.5,2.2,1.5,3.7v134.9    c0,1.5-0.5,2.7-1.5,3.6c-1,0.9-2.2,1.4-3.7,1.4h-17.4c-1.4,0-2.6-0.5-3.5-1.4c-1-1-1.5-2.1-1.5-3.5v-89.7l-29,55.3    c-1.8,3-4.1,4.6-7,4.6h-8.5c-2.9,0-5.2-1.5-7-4.6l-29-55.3v89.7c0,1.4-0.4,2.6-1.4,3.5c-0.9,1-2.1,1.4-3.6,1.4h-17.4    C211.8,213.1,210.6,212.6,209.6,211.7z"></path>
		<path class="st3" d="M364.2,211.8c-0.9-0.8-1.4-1.9-1.4-3.1l0.4-1.9l49.9-133.6c1-3.4,3.4-5.2,7.2-5.2h22.6c3.6,0,6,1.7,7.2,5.2    l49.9,133.6c0.1,0.4,0.2,1,0.2,1.9c0,1.2-0.4,2.3-1.2,3.1s-1.8,1.2-2.9,1.2h-18c-1.8,0-3.2-0.4-4.1-1.2c-1-0.8-1.6-1.7-1.9-2.7    l-9.7-25.3H401l-9.7,25.3c-1.1,2.6-3.1,3.9-6,3.9h-18C366.1,213.1,365.1,212.6,364.2,211.8z M455.3,160l-23.6-64l-23.4,64    L455.3,160L455.3,160z"></path>
		<path class="st3" d="M521.2,211.6c-1-1-1.5-2.1-1.5-3.5V73.2c0-1.5,0.5-2.8,1.3-3.7c0.9-1,2.1-1.4,3.6-1.4h53.7    c16.8,0,30.1,3.9,39.7,11.8c9.6,7.9,14.4,19.1,14.4,33.6c0,10.1-2.5,18.5-7.4,25.4c-4.9,6.8-11.7,11.8-20.4,14.8l30.2,52.8    c0.4,0.8,0.6,1.6,0.6,2.3c0,1.2-0.5,2.3-1.3,3.1c-0.9,0.8-1.9,1.2-3,1.2h-18.8c-2.2,0-3.9-0.5-5.1-1.4c-1.2-1-2.2-2.4-3.2-4.1    l-26.7-49.1h-28.8v49.7c0,1.4-0.5,2.6-1.3,3.5c-0.9,1-2.1,1.4-3.6,1.4h-18.8C523.3,213.1,522.2,212.6,521.2,211.6z M577.8,134.9    c8.3,0,14.5-1.9,18.8-5.6c4.2-3.7,6.3-9.1,6.3-16.2s-2.1-12.5-6.3-16.4S586,91,577.8,91h-29.2v43.9L577.8,134.9L577.8,134.9z"></path>
		<path class="st3" d="M690.9,211.6c-1-1-1.5-2.1-1.5-3.5V93.5h-38.3c-1.4,0-2.6-0.5-3.5-1.4c-1-1-1.5-2.1-1.5-3.5V73.2    c0-1.5,0.5-2.8,1.3-3.7c0.9-1,2.1-1.4,3.6-1.4h105.7c1.5,0,2.8,0.5,3.7,1.4c1,1,1.5,2.2,1.5,3.7v15.3c0,1.4-0.5,2.6-1.5,3.5    c-1,1-2.2,1.4-3.7,1.4h-38.1v114.6c0,1.4-0.5,2.6-1.5,3.5c-1,1-2.2,1.4-3.7,1.4h-19.1C693,213.1,691.8,212.6,690.9,211.6z"></path>
		<path class="st2" d="M1024.9,200.8c-10.5-9.5-16-23.7-16.6-42.5c-0.1-4-0.2-9.9-0.2-17.6c0-7.9,0.1-13.8,0.2-17.8    c0.5-18.4,6.2-32.5,17-42.3c10.8-9.8,25.3-14.7,43.5-14.7s32.8,4.9,43.6,14.7s16.5,23.9,17.1,42.3c0.3,8,0.4,13.9,0.4,17.8    c0,3.7-0.1,9.6-0.4,17.6c-0.7,18.8-6.3,32.9-16.8,42.5c-10.5,9.5-25.1,14.3-43.9,14.3C1050.1,215.1,1035.4,210.4,1024.9,200.8z     M1091,182.9c5.5-5.6,8.5-14.1,8.9-25.6c0.3-8.3,0.4-13.9,0.4-16.8c0-3.2-0.1-8.8-0.4-16.8c-0.4-11.5-3.4-20-8.9-25.6    c-5.5-5.6-12.9-8.4-22.2-8.4c-9.1,0-16.4,2.8-22,8.4c-5.5,5.6-8.5,14.1-8.9,25.6c-0.1,4-0.2,9.6-0.2,16.8c0,7,0.1,12.6,0.2,16.8    c0.4,11.5,3.3,20,8.8,25.6c5.4,5.6,12.8,8.4,22.1,8.4C1078.1,191.3,1085.5,188.5,1091,182.9z"></path>
		<path class="st2" d="M1158.6,211.6c-1-1-1.4-2.1-1.4-3.5V73.2c0-1.5,0.4-2.8,1.3-3.7c0.9-1,2.1-1.4,3.6-1.4h50.6    c40.6,0,61.3,18.8,62.2,56.4c0.3,8,0.4,13.4,0.4,16.2c0,2.6-0.1,7.9-0.4,15.9c-0.6,19.3-5.7,33.6-15.5,42.8    c-9.8,9.2-25,13.8-45.6,13.8h-51.6C1160.7,213.1,1159.5,212.6,1158.6,211.6z M1212.6,189.2c11.6,0,20-2.6,25.1-7.8    c5.1-5.2,7.8-13.7,8.1-25.6c0.3-8.3,0.4-13.5,0.4-15.5c0-2.2-0.1-7.3-0.4-15.3c-0.3-11.3-3.1-19.7-8.6-25.1s-14-8.1-25.6-8.1    h-25.7v97.4H1212.6z"></path>
		<path class="st2" d="M1304.2,211.6c-1-1-1.4-2.1-1.4-3.5V73.2c0-1.5,0.4-2.8,1.3-3.7c0.9-1,2.1-1.4,3.6-1.4h53.7    c16.8,0,30.1,3.9,39.7,11.8c9.6,7.9,14.4,19.1,14.4,33.6c0,10.1-2.4,18.5-7.3,25.4s-11.7,11.8-20.4,14.8l30.2,52.8    c0.4,0.8,0.6,1.6,0.6,2.3c0,1.2-0.4,2.3-1.3,3.1s-1.9,1.2-3,1.2h-18.8c-2.2,0-3.9-0.5-5.1-1.4c-1.2-1-2.2-2.4-3.2-4.1l-26.7-49.1    h-28.8v49.7c0,1.4-0.4,2.6-1.3,3.5c-0.9,1-2.1,1.4-3.6,1.4h-18.8C1306.3,213.1,1305.2,212.6,1304.2,211.6z M1360.8,134.9    c8.3,0,14.5-1.9,18.8-5.6c4.2-3.7,6.3-9.1,6.3-16.2s-2.1-12.5-6.3-16.4s-10.5-5.8-18.8-5.8h-29.2v43.9L1360.8,134.9L1360.8,134.9z    "></path>
	</g>
</g>
<g id="Layer_2">
	<g>
		<path class="st3" d="M93.8,171.2c-8.8-3.7-15.5-8.6-20.1-14.7c-4.6-6.1-7-12.6-7.3-19.7c0-1.2,0.4-2.3,1.2-3.1    c0.8-0.8,1.9-1.2,3.1-1.2h18.4c1.7,0,2.9,0.3,3.8,0.9c0.9,0.6,1.8,1.6,2.6,3c1.4,4.7,4.6,8.6,9.5,11.8c5,3.2,11.7,4.8,20.3,4.8    c9.8,0,17.2-1.6,22.2-4.9c5-3.2,7.5-7.8,7.5-13.6c0-3.9-1.3-7-3.8-9.5c-2.6-2.5-6.4-4.6-11.4-6.4c-5-1.8-12.5-4-22.5-6.6    c-16.3-3.9-28.2-9-35.7-15.4c-7.5-6.4-11.3-15.6-11.3-27.5c0-8,2.2-15.1,6.5-21.3c4.4-6.2,10.6-11.1,18.9-14.7    c8.2-3.6,17.8-5.4,28.7-5.4c11.3,0,21.1,2,29.4,6c8.3,4,14.6,9,19,15c4.4,6,6.7,12,6.9,17.9c0,1.2-0.4,2.3-1.2,3.1    c-0.8,0.8-1.9,1.2-3.1,1.2h-19.3c-2.9,0-4.9-1.3-6-3.9c-0.8-4.4-3.6-8.1-8.3-11.1c-4.7-3-10.5-4.5-17.4-4.5    c-7.7,0-13.8,1.5-18.2,4.4c-4.4,2.9-6.6,7.1-6.6,12.6c0,3.9,1.1,7,3.3,9.5c2.2,2.5,5.7,4.7,10.5,6.6c4.8,1.9,11.6,4.1,20.6,6.4    c12.2,2.8,21.9,5.9,29.1,9.3c7.3,3.5,12.6,7.8,16.1,13.1c3.5,5.3,5.2,11.9,5.2,20.1c0,8.8-2.5,16.5-7.4,23.1    c-4.9,6.6-11.8,11.6-20.7,15c-8.9,3.5-19.2,5.2-30.8,5.2C113.2,176.8,102.6,174.9,93.8,171.2z"></path>
		<path class="st3" d="M209.6,173.4c-1-0.9-1.5-2.1-1.5-3.6V34.9c0-1.5,0.5-2.8,1.5-3.7c1-1,2.2-1.5,3.7-1.5h16.4    c2.9,0,5,1.3,6.2,3.9l40,74.6l40.4-74.6c1.4-2.6,3.5-3.9,6.2-3.9h16.2c1.5,0,2.8,0.5,3.7,1.5c1,1,1.5,2.2,1.5,3.7v134.9    c0,1.5-0.5,2.7-1.5,3.6c-1,0.9-2.2,1.3-3.7,1.3h-17.4c-1.4,0-2.6-0.5-3.5-1.5c-1-1-1.5-2.1-1.5-3.5V80l-29,55.3    c-1.8,3-4.1,4.6-7,4.6h-8.5c-2.9,0-5.3-1.5-7-4.6l-29-55.3v89.7c0,1.4-0.4,2.6-1.3,3.5c-0.9,1-2.1,1.5-3.6,1.5h-17.4    C211.8,174.7,210.6,174.3,209.6,173.4z"></path>
		<path class="st3" d="M364.3,173.5c-0.9-0.8-1.3-1.9-1.3-3.1l0.4-1.9l49.9-133.6c1-3.5,3.4-5.2,7.3-5.2h22.6c3.6,0,6,1.7,7.3,5.2    l49.9,133.6c0.1,0.4,0.2,1,0.2,1.9c0,1.2-0.4,2.3-1.2,3.1c-0.8,0.8-1.8,1.2-2.9,1.2h-18c-1.8,0-3.2-0.4-4.1-1.2    c-1-0.8-1.6-1.7-1.9-2.7l-9.7-25.3H401l-9.7,25.3c-1.1,2.6-3.1,3.9-6,3.9h-18C366.1,174.7,365.1,174.3,364.3,173.5z M455.3,121.7    l-23.6-64l-23.4,64H455.3z"></path>
		<path class="st3" d="M521.2,173.3c-1-1-1.5-2.1-1.5-3.5V34.9c0-1.5,0.4-2.8,1.3-3.7c0.9-1,2.1-1.5,3.6-1.5h53.7    c16.9,0,30.1,3.9,39.7,11.8c9.6,7.9,14.4,19.1,14.4,33.6c0,10.1-2.5,18.5-7.4,25.4c-4.9,6.8-11.7,11.8-20.4,14.8l30.2,52.8    c0.4,0.8,0.6,1.6,0.6,2.3c0,1.2-0.4,2.3-1.3,3.1c-0.9,0.8-1.9,1.2-3,1.2h-18.9c-2.2,0-3.9-0.5-5.1-1.5c-1.2-1-2.2-2.3-3.2-4.1    L577.3,120h-28.8v49.7c0,1.4-0.5,2.6-1.3,3.5c-0.9,1-2.1,1.5-3.6,1.5h-18.9C523.3,174.7,522.2,174.3,521.2,173.3z M577.8,96.6    c8.3,0,14.5-1.9,18.8-5.6c4.2-3.7,6.3-9.1,6.3-16.2c0-7-2.1-12.5-6.3-16.4c-4.2-3.9-10.5-5.8-18.8-5.8h-29.2v43.9H577.8z"></path>
		<path class="st3" d="M690.9,173.3c-1-1-1.5-2.1-1.5-3.5V55.2h-38.3c-1.4,0-2.6-0.5-3.5-1.5c-1-1-1.5-2.1-1.5-3.5V34.9    c0-1.5,0.4-2.8,1.3-3.7c0.9-1,2.1-1.5,3.6-1.5h105.7c1.5,0,2.8,0.5,3.7,1.5c1,1,1.5,2.2,1.5,3.7v15.3c0,1.4-0.5,2.6-1.5,3.5    c-1,1-2.2,1.5-3.7,1.5h-38.1v114.6c0,1.4-0.5,2.6-1.5,3.5c-1,1-2.2,1.5-3.7,1.5h-19.1C693,174.7,691.8,174.3,690.9,173.3z"></path>
		<path class="st2" d="M1024.9,162.5c-10.5-9.5-16-23.7-16.6-42.5c-0.1-4-0.2-9.9-0.2-17.6c0-7.9,0.1-13.8,0.2-17.8    c0.6-18.4,6.2-32.5,17-42.3c10.8-9.8,25.3-14.7,43.5-14.7c18.2,0,32.8,4.9,43.6,14.7c10.8,9.8,16.5,23.9,17.1,42.3    c0.3,8,0.4,14,0.4,17.8c0,3.7-0.1,9.6-0.4,17.6c-0.7,18.8-6.3,32.9-16.8,42.5c-10.5,9.5-25.1,14.3-43.9,14.3    C1050.1,176.8,1035.4,172,1024.9,162.5z M1091,144.6c5.5-5.6,8.5-14.1,8.9-25.6c0.3-8.3,0.4-13.9,0.4-16.8c0-3.2-0.1-8.8-0.4-16.8    c-0.4-11.5-3.4-20-8.9-25.6c-5.5-5.6-12.9-8.4-22.2-8.4c-9.1,0-16.4,2.8-22,8.4c-5.5,5.6-8.5,14.1-8.9,25.6    c-0.1,4-0.2,9.6-0.2,16.8c0,7,0.1,12.6,0.2,16.8c0.4,11.5,3.3,20,8.8,25.6c5.5,5.6,12.8,8.4,22.1,8.4    C1078.1,153,1085.5,150.2,1091,144.6z"></path>
		<path class="st2" d="M1158.6,173.3c-1-1-1.5-2.1-1.5-3.5V34.9c0-1.5,0.4-2.8,1.3-3.7c0.9-1,2.1-1.5,3.6-1.5h50.6    c40.6,0,61.3,18.8,62.2,56.4c0.3,8,0.4,13.4,0.4,16.2c0,2.6-0.1,7.9-0.4,16c-0.6,19.3-5.7,33.6-15.5,42.8    c-9.8,9.2-25,13.8-45.6,13.8h-51.6C1160.7,174.7,1159.5,174.3,1158.6,173.3z M1212.6,150.9c11.6,0,20-2.6,25.1-7.8    c5.1-5.2,7.8-13.7,8.1-25.6c0.3-8.3,0.4-13.5,0.4-15.5c0-2.2-0.1-7.3-0.4-15.3c-0.3-11.3-3.1-19.7-8.6-25.1    c-5.5-5.4-14-8.1-25.6-8.1h-25.7v97.4H1212.6z"></path>
		<path class="st2" d="M1304.2,173.3c-1-1-1.5-2.1-1.5-3.5V34.9c0-1.5,0.4-2.8,1.3-3.7c0.9-1,2.1-1.5,3.6-1.5h53.7    c16.9,0,30.1,3.9,39.7,11.8c9.6,7.9,14.4,19.1,14.4,33.6c0,10.1-2.5,18.5-7.4,25.4c-4.9,6.8-11.7,11.8-20.4,14.8l30.2,52.8    c0.4,0.8,0.6,1.6,0.6,2.3c0,1.2-0.4,2.3-1.3,3.1c-0.9,0.8-1.9,1.2-3,1.2h-18.9c-2.2,0-3.9-0.5-5.1-1.5c-1.2-1-2.2-2.3-3.2-4.1    l-26.7-49.1h-28.8v49.7c0,1.4-0.4,2.6-1.3,3.5c-0.9,1-2.1,1.5-3.6,1.5h-18.9C1306.4,174.7,1305.2,174.3,1304.2,173.3z     M1360.8,96.6c8.3,0,14.5-1.9,18.8-5.6c4.2-3.7,6.3-9.1,6.3-16.2c0-7-2.1-12.5-6.3-16.4c-4.2-3.9-10.5-5.8-18.8-5.8h-29.2v43.9    H1360.8z"></path>
		<g>
			<path class="st3" d="M828.1,83.6L828.1,83.6c0-2.7,0.2-5.3,0.6-7.9h-10.5c-28.9,0-52.4,23.5-52.4,52.4v0     c0,28.9,23.5,52.4,52.4,52.4h50.3c26.2,0,48-19.3,51.8-44.5h-39.8C851.5,136,828.1,112.5,828.1,83.6z"></path>
			<path class="st2" d="M930.7,31.2h-50.3c-26.2,0-48,19.3-51.8,44.5h39.8c28.9,0,52.4,23.5,52.4,52.4v0c0,2.7-0.2,5.3-0.6,7.9h10.5     c28.9,0,52.4-23.5,52.4-52.4v0C983.1,54.7,959.6,31.2,930.7,31.2z"></path>
		</g>
		<g>
			<path class="st2" d="M80.8,247.2c-2.7,0-4.9-0.4-6.7-1.2c-1.8-0.8-3.2-1.9-4.2-3.2c-1-1.3-1.5-2.7-1.5-4.2c0-0.2,0.1-0.5,0.3-0.7     c0.2-0.2,0.4-0.3,0.7-0.3h2.3c0.4,0,0.6,0.1,0.8,0.3c0.2,0.2,0.3,0.4,0.4,0.6c0.2,0.7,0.5,1.5,1.1,2.2c0.6,0.7,1.4,1.3,2.5,1.8     c1.1,0.5,2.5,0.7,4.2,0.7c2.6,0,4.6-0.5,5.8-1.4c1.2-0.9,1.9-2.2,1.9-3.7c0-1.1-0.3-1.9-1-2.6c-0.7-0.7-1.7-1.2-3-1.8     c-1.4-0.5-3.1-1.1-5.2-1.7c-2.2-0.6-4.1-1.3-5.6-2.1c-1.5-0.8-2.6-1.7-3.3-2.9c-0.7-1.1-1.1-2.6-1.1-4.3c0-1.7,0.4-3.1,1.3-4.4     c0.9-1.3,2.2-2.3,3.8-3.1c1.7-0.8,3.7-1.2,6.1-1.2c1.9,0,3.6,0.3,5,0.8c1.4,0.5,2.6,1.2,3.6,2c1,0.8,1.7,1.7,2.2,2.7     c0.5,1,0.8,1.9,0.8,2.8c0,0.2-0.1,0.4-0.2,0.6c-0.2,0.2-0.4,0.3-0.7,0.3h-2.4c-0.2,0-0.4-0.1-0.7-0.2c-0.2-0.1-0.4-0.4-0.5-0.7     c-0.2-1.3-0.9-2.3-2.1-3.2s-2.8-1.3-4.8-1.3c-2,0-3.6,0.4-4.9,1.2s-1.9,2-1.9,3.6c0,1,0.3,1.9,0.9,2.6c0.6,0.7,1.5,1.3,2.8,1.8     c1.3,0.5,2.9,1.1,4.9,1.7c2.5,0.7,4.5,1.4,6,2.1c1.6,0.8,2.7,1.7,3.5,2.8c0.8,1.1,1.1,2.6,1.1,4.3c0,1.9-0.5,3.6-1.5,4.9     c-1,1.4-2.4,2.4-4.3,3.1C85.4,246.8,83.3,247.2,80.8,247.2z"></path>
			<path class="st2" d="M108.3,247.2c-3.2,0-5.7-1-7.5-2.9c-1.9-1.9-2.9-4.6-3.1-8c0-0.4,0-0.9,0-1.5c0-0.6,0-1.1,0-1.5     c0.1-2.2,0.6-4.1,1.5-5.7c0.9-1.6,2.1-2.9,3.7-3.8c1.5-0.9,3.4-1.3,5.5-1.3c2.3,0,4.3,0.5,5.9,1.5c1.6,1,2.8,2.4,3.6,4.2     c0.8,1.8,1.2,3.9,1.2,6.3v0.8c0,0.3-0.1,0.6-0.3,0.8c-0.2,0.2-0.5,0.3-0.8,0.3h-15.9c0,0,0,0.1,0,0.2c0,0.1,0,0.2,0,0.2     c0.1,1.3,0.3,2.4,0.8,3.5c0.5,1.1,1.2,2,2.1,2.6c0.9,0.7,2,1,3.3,1c1.1,0,2-0.2,2.8-0.5c0.7-0.3,1.3-0.7,1.8-1.1s0.8-0.7,0.9-0.9     c0.3-0.4,0.5-0.6,0.6-0.7c0.2-0.1,0.4-0.1,0.7-0.1h2.2c0.3,0,0.6,0.1,0.8,0.3c0.2,0.2,0.3,0.4,0.3,0.7c0,0.5-0.3,1-0.7,1.7     c-0.5,0.7-1.1,1.3-2,2c-0.9,0.6-1.9,1.2-3.1,1.6C111.3,247,109.9,247.2,108.3,247.2z M102.1,233h12.6v-0.1c0-1.4-0.3-2.6-0.8-3.7     c-0.5-1.1-1.2-1.9-2.2-2.6c-1-0.6-2.1-0.9-3.4-0.9c-1.3,0-2.4,0.3-3.4,0.9c-0.9,0.6-1.6,1.5-2.1,2.6c-0.5,1.1-0.7,2.3-0.7,3.7     V233z"></path>
			<path class="st2" d="M134.6,247.2c-2.2,0-4.1-0.4-5.6-1.3c-1.6-0.8-2.8-2.1-3.7-3.6c-0.9-1.6-1.3-3.5-1.4-5.7c0-0.5,0-1.1,0-1.8     s0-1.4,0-1.8c0.1-2.2,0.5-4.1,1.4-5.7c0.9-1.6,2.1-2.8,3.7-3.6c1.6-0.8,3.5-1.3,5.6-1.3c1.8,0,3.3,0.2,4.6,0.7     c1.3,0.5,2.3,1.1,3.2,1.9s1.4,1.6,1.9,2.5c0.4,0.9,0.6,1.7,0.7,2.5c0,0.3-0.1,0.6-0.3,0.7c-0.2,0.2-0.5,0.3-0.8,0.3h-2.2     c-0.3,0-0.5-0.1-0.7-0.2c-0.2-0.1-0.3-0.4-0.5-0.7c-0.6-1.5-1.3-2.6-2.3-3.2c-1-0.6-2.1-0.9-3.5-0.9c-1.8,0-3.3,0.6-4.5,1.7     c-1.1,1.1-1.8,3-1.9,5.5c0,1.1,0,2.2,0,3.2c0.1,2.5,0.7,4.4,1.9,5.5s2.6,1.7,4.5,1.7c1.4,0,2.6-0.3,3.5-0.9     c1-0.6,1.7-1.7,2.3-3.2c0.2-0.3,0.3-0.6,0.5-0.7c0.2-0.1,0.4-0.2,0.7-0.2h2.2c0.3,0,0.6,0.1,0.8,0.3c0.2,0.2,0.3,0.4,0.3,0.7     c0,0.6-0.2,1.3-0.4,2c-0.2,0.7-0.6,1.4-1.2,2c-0.5,0.7-1.2,1.3-2,1.8c-0.8,0.5-1.8,1-2.9,1.3C137.3,247,136,247.2,134.6,247.2z"></path>
			<path class="st2" d="M159.6,247.2c-2,0-3.6-0.4-5-1.3c-1.4-0.9-2.4-2.1-3.1-3.7c-0.7-1.6-1.1-3.4-1.1-5.4v-13     c0-0.3,0.1-0.6,0.3-0.8c0.2-0.2,0.5-0.3,0.8-0.3h2.3c0.3,0,0.6,0.1,0.8,0.3c0.2,0.2,0.3,0.5,0.3,0.8v12.7c0,4.6,2,6.9,6,6.9     c1.9,0,3.4-0.6,4.6-1.8c1.1-1.2,1.7-2.9,1.7-5v-12.7c0-0.3,0.1-0.6,0.3-0.8c0.2-0.2,0.5-0.3,0.8-0.3h2.3c0.3,0,0.6,0.1,0.8,0.3     c0.2,0.2,0.3,0.5,0.3,0.8v21.8c0,0.3-0.1,0.6-0.3,0.8c-0.2,0.2-0.4,0.3-0.8,0.3h-2.1c-0.3,0-0.6-0.1-0.8-0.3     c-0.2-0.2-0.3-0.5-0.3-0.8v-2c-0.8,1.1-1.8,1.9-3,2.6C163.1,246.8,161.5,247.2,159.6,247.2z"></path>
			<path class="st2" d="M179.8,246.7c-0.3,0-0.6-0.1-0.8-0.3c-0.2-0.2-0.3-0.5-0.3-0.8v-21.8c0-0.3,0.1-0.6,0.3-0.8     c0.2-0.2,0.5-0.3,0.8-0.3h2.1c0.3,0,0.6,0.1,0.8,0.3c0.2,0.2,0.3,0.5,0.3,0.8v2c0.6-1,1.5-1.8,2.5-2.3c1.1-0.5,2.4-0.8,3.9-0.8     h1.8c0.3,0,0.6,0.1,0.7,0.3c0.2,0.2,0.3,0.5,0.3,0.8v1.9c0,0.3-0.1,0.6-0.3,0.7c-0.2,0.2-0.4,0.3-0.7,0.3h-2.8     c-1.7,0-3,0.5-3.9,1.4c-1,1-1.4,2.3-1.4,3.9v13.5c0,0.3-0.1,0.6-0.3,0.8c-0.2,0.2-0.5,0.3-0.8,0.3H179.8z"></path>
			<path class="st2" d="M197.3,218.3c-0.3,0-0.6-0.1-0.8-0.3c-0.2-0.2-0.3-0.5-0.3-0.8v-2.5c0-0.3,0.1-0.6,0.3-0.8     c0.2-0.2,0.5-0.3,0.8-0.3h2.9c0.3,0,0.6,0.1,0.8,0.3c0.2,0.2,0.3,0.5,0.3,0.8v2.5c0,0.3-0.1,0.6-0.3,0.8     c-0.2,0.2-0.5,0.3-0.8,0.3H197.3z M197.7,246.7c-0.3,0-0.6-0.1-0.8-0.3c-0.2-0.2-0.3-0.5-0.3-0.8v-21.8c0-0.3,0.1-0.6,0.3-0.8     c0.2-0.2,0.5-0.3,0.8-0.3h2.2c0.3,0,0.6,0.1,0.7,0.3c0.2,0.2,0.3,0.5,0.3,0.8v21.8c0,0.3-0.1,0.6-0.3,0.8     c-0.2,0.2-0.4,0.3-0.7,0.3H197.7z"></path>
			<path class="st2" d="M217.4,246.7c-1.7,0-3.1-0.3-4.2-1c-1.1-0.7-1.9-1.6-2.3-2.8c-0.5-1.2-0.7-2.6-0.7-4.3v-12.1h-3.6     c-0.3,0-0.6-0.1-0.8-0.3c-0.2-0.2-0.3-0.5-0.3-0.8v-1.6c0-0.3,0.1-0.6,0.3-0.8c0.2-0.2,0.5-0.3,0.8-0.3h3.6v-7.7     c0-0.3,0.1-0.6,0.3-0.8c0.2-0.2,0.5-0.3,0.8-0.3h2.2c0.3,0,0.6,0.1,0.8,0.3c0.2,0.2,0.3,0.5,0.3,0.8v7.7h5.7     c0.3,0,0.6,0.1,0.8,0.3c0.2,0.2,0.3,0.5,0.3,0.8v1.6c0,0.3-0.1,0.6-0.3,0.8c-0.2,0.2-0.5,0.3-0.8,0.3h-5.7v11.8     c0,1.4,0.2,2.6,0.7,3.4c0.5,0.8,1.4,1.2,2.6,1.2h2.8c0.3,0,0.6,0.1,0.8,0.3c0.2,0.2,0.3,0.5,0.3,0.8v1.7c0,0.3-0.1,0.6-0.3,0.8     c-0.2,0.2-0.5,0.3-0.8,0.3H217.4z"></path>
			<path class="st2" d="M227.1,218.3c-0.3,0-0.6-0.1-0.8-0.3c-0.2-0.2-0.3-0.5-0.3-0.8v-2.5c0-0.3,0.1-0.6,0.3-0.8     c0.2-0.2,0.5-0.3,0.8-0.3h2.9c0.3,0,0.6,0.1,0.8,0.3c0.2,0.2,0.3,0.5,0.3,0.8v2.5c0,0.3-0.1,0.6-0.3,0.8     c-0.2,0.2-0.5,0.3-0.8,0.3H227.1z M227.5,246.7c-0.3,0-0.6-0.1-0.8-0.3c-0.2-0.2-0.3-0.5-0.3-0.8v-21.8c0-0.3,0.1-0.6,0.3-0.8     c0.2-0.2,0.5-0.3,0.8-0.3h2.2c0.3,0,0.6,0.1,0.7,0.3c0.2,0.2,0.3,0.5,0.3,0.8v21.8c0,0.3-0.1,0.6-0.3,0.8     c-0.2,0.2-0.4,0.3-0.7,0.3H227.5z"></path>
			<path class="st2" d="M247.5,247.2c-3.2,0-5.7-1-7.5-2.9c-1.9-1.9-2.9-4.6-3.1-8c0-0.4,0-0.9,0-1.5c0-0.6,0-1.1,0-1.5     c0.1-2.2,0.6-4.1,1.5-5.7c0.9-1.6,2.1-2.9,3.7-3.8c1.5-0.9,3.4-1.3,5.5-1.3c2.3,0,4.3,0.5,5.9,1.5c1.6,1,2.8,2.4,3.6,4.2     c0.8,1.8,1.2,3.9,1.2,6.3v0.8c0,0.3-0.1,0.6-0.3,0.8c-0.2,0.2-0.5,0.3-0.8,0.3h-15.9c0,0,0,0.1,0,0.2c0,0.1,0,0.2,0,0.2     c0.1,1.3,0.3,2.4,0.8,3.5c0.5,1.1,1.2,2,2.1,2.6c0.9,0.7,2,1,3.3,1c1.1,0,2-0.2,2.8-0.5c0.7-0.3,1.3-0.7,1.8-1.1s0.8-0.7,0.9-0.9     c0.3-0.4,0.5-0.6,0.6-0.7c0.2-0.1,0.4-0.1,0.7-0.1h2.2c0.3,0,0.6,0.1,0.8,0.3c0.2,0.2,0.3,0.4,0.3,0.7c0,0.5-0.3,1-0.7,1.7     c-0.5,0.7-1.1,1.3-2,2c-0.9,0.6-1.9,1.2-3.1,1.6C250.5,247,249.1,247.2,247.5,247.2z M241.2,233h12.6v-0.1c0-1.4-0.3-2.6-0.8-3.7     c-0.5-1.1-1.2-1.9-2.2-2.6c-1-0.6-2.1-0.9-3.4-0.9c-1.3,0-2.4,0.3-3.4,0.9c-0.9,0.6-1.6,1.5-2.1,2.6c-0.5,1.1-0.7,2.3-0.7,3.7     V233z"></path>
			<path class="st2" d="M272.4,247.2c-1.7,0-3.2-0.2-4.4-0.6c-1.2-0.4-2.2-1-3-1.6c-0.8-0.6-1.3-1.2-1.7-1.8     c-0.4-0.6-0.6-1.1-0.6-1.5c0-0.3,0.1-0.6,0.3-0.8c0.2-0.2,0.5-0.3,0.7-0.3h2c0.2,0,0.3,0,0.4,0.1c0.1,0,0.3,0.2,0.4,0.4     c0.4,0.4,0.8,0.9,1.3,1.3c0.5,0.4,1.1,0.8,1.8,1.1c0.7,0.3,1.6,0.4,2.7,0.4c1.6,0,2.9-0.3,3.9-0.9c1-0.6,1.5-1.5,1.5-2.6     c0-0.8-0.2-1.4-0.6-1.8c-0.4-0.5-1.2-0.9-2.2-1.2c-1.1-0.4-2.5-0.8-4.3-1.1c-1.8-0.4-3.3-1-4.4-1.6c-1.1-0.6-1.8-1.4-2.3-2.3     s-0.7-1.9-0.7-3c0-1.1,0.3-2.2,1-3.3c0.7-1.1,1.7-1.9,3-2.6c1.3-0.7,2.9-1,4.9-1c1.6,0,3,0.2,4.1,0.6c1.1,0.4,2.1,0.9,2.8,1.5     s1.3,1.2,1.7,1.8c0.4,0.6,0.6,1.1,0.6,1.5c0,0.3-0.1,0.6-0.3,0.8c-0.2,0.2-0.5,0.3-0.7,0.3h-1.9c-0.2,0-0.4,0-0.5-0.1     c-0.1-0.1-0.3-0.2-0.4-0.3c-0.3-0.4-0.7-0.8-1.1-1.2s-1-0.7-1.6-1c-0.7-0.3-1.5-0.4-2.6-0.4c-1.5,0-2.7,0.3-3.5,1     c-0.8,0.6-1.1,1.5-1.1,2.4c0,0.6,0.2,1.1,0.5,1.6c0.3,0.5,1,0.9,1.9,1.2c1,0.4,2.4,0.8,4.2,1.2c2,0.4,3.6,0.9,4.8,1.6     c1.2,0.7,2,1.5,2.5,2.3c0.5,0.9,0.7,1.9,0.7,3.1c0,1.3-0.4,2.5-1.1,3.5c-0.8,1.1-1.9,1.9-3.3,2.6     C276.3,246.8,274.5,247.2,272.4,247.2z"></path>
			<path class="st2" d="M301.2,246.7c-0.3,0-0.6-0.1-0.8-0.3c-0.2-0.2-0.3-0.5-0.3-0.8v-30c0-0.3,0.1-0.6,0.3-0.8     c0.2-0.2,0.5-0.3,0.8-0.3h2.3c0.4,0,0.6,0.1,0.8,0.3c0.2,0.2,0.3,0.3,0.3,0.5l9.8,18.6l9.8-18.6c0.1-0.1,0.2-0.3,0.3-0.5     c0.2-0.2,0.4-0.3,0.8-0.3h2.3c0.3,0,0.6,0.1,0.8,0.3c0.2,0.2,0.3,0.5,0.3,0.8v30c0,0.3-0.1,0.6-0.3,0.8c-0.2,0.2-0.5,0.3-0.8,0.3     h-2.3c-0.3,0-0.6-0.1-0.8-0.3c-0.2-0.2-0.3-0.5-0.3-0.8V223l-7.7,15c-0.1,0.3-0.3,0.5-0.6,0.7c-0.2,0.2-0.6,0.3-0.9,0.3h-1.4     c-0.4,0-0.7-0.1-0.9-0.3c-0.2-0.2-0.4-0.4-0.6-0.7l-7.7-15v22.6c0,0.3-0.1,0.6-0.3,0.8c-0.2,0.2-0.5,0.3-0.8,0.3H301.2z"></path>
			<path class="st2" d="M343.1,247.2c-1.5,0-2.9-0.3-4.2-0.9c-1.3-0.6-2.3-1.4-3-2.5c-0.8-1-1.1-2.2-1.1-3.5c0-2.1,0.9-3.8,2.6-5.1     c1.7-1.3,4-2.1,6.7-2.5l6.9-1v-1.3c0-1.5-0.4-2.6-1.3-3.5c-0.8-0.8-2.2-1.2-4.1-1.2c-1.4,0-2.5,0.3-3.3,0.8     c-0.8,0.6-1.4,1.3-1.8,2.1c-0.2,0.5-0.5,0.7-1,0.7h-2.1c-0.3,0-0.6-0.1-0.8-0.3c-0.2-0.2-0.3-0.4-0.3-0.7c0-0.5,0.2-1,0.5-1.7     s0.9-1.3,1.6-2c0.7-0.6,1.7-1.2,2.8-1.6c1.1-0.4,2.6-0.7,4.2-0.7c1.8,0,3.4,0.2,4.6,0.7c1.3,0.5,2.2,1.1,3,1.9     c0.7,0.8,1.2,1.7,1.6,2.7c0.3,1,0.5,2,0.5,3.1v14.9c0,0.3-0.1,0.6-0.3,0.8c-0.2,0.2-0.5,0.3-0.8,0.3H352c-0.3,0-0.6-0.1-0.8-0.3     c-0.2-0.2-0.3-0.5-0.3-0.8v-2c-0.4,0.6-0.9,1.1-1.6,1.6c-0.7,0.5-1.5,1-2.5,1.3C345.8,247,344.6,247.2,343.1,247.2z M344.1,243.7     c1.3,0,2.4-0.3,3.5-0.8c1-0.5,1.9-1.4,2.5-2.5c0.6-1.1,0.9-2.6,0.9-4.3v-1.3l-5.3,0.8c-2.2,0.3-3.8,0.8-4.9,1.5s-1.7,1.6-1.7,2.7     c0,0.9,0.3,1.6,0.8,2.1c0.5,0.6,1.1,1,1.9,1.3C342.4,243.6,343.2,243.7,344.1,243.7z"></path>
			<path class="st2" d="M363.3,246.7c-0.3,0-0.6-0.1-0.8-0.3c-0.2-0.2-0.3-0.5-0.3-0.8v-21.8c0-0.3,0.1-0.6,0.3-0.8     c0.2-0.2,0.5-0.3,0.8-0.3h2.1c0.3,0,0.6,0.1,0.8,0.3c0.2,0.2,0.3,0.5,0.3,0.8v2c0.6-1,1.5-1.8,2.5-2.3c1.1-0.5,2.4-0.8,3.9-0.8     h1.8c0.3,0,0.6,0.1,0.7,0.3c0.2,0.2,0.3,0.5,0.3,0.8v1.9c0,0.3-0.1,0.6-0.3,0.7c-0.2,0.2-0.4,0.3-0.7,0.3h-2.8     c-1.7,0-3,0.5-3.9,1.4c-1,1-1.4,2.3-1.4,3.9v13.5c0,0.3-0.1,0.6-0.3,0.8c-0.2,0.2-0.5,0.3-0.8,0.3H363.3z"></path>
			<path class="st2" d="M381.1,246.7c-0.3,0-0.6-0.1-0.8-0.3c-0.2-0.2-0.3-0.5-0.3-0.8v-30.5c0-0.3,0.1-0.6,0.3-0.8     c0.2-0.2,0.5-0.3,0.8-0.3h2.2c0.3,0,0.6,0.1,0.8,0.3c0.2,0.2,0.3,0.5,0.3,0.8v16l9.1-7.5c0.4-0.3,0.7-0.5,0.9-0.6     c0.2-0.1,0.5-0.2,1-0.2h2.4c0.3,0,0.5,0.1,0.7,0.3c0.2,0.2,0.3,0.4,0.3,0.7c0,0.1,0,0.3-0.1,0.4c-0.1,0.2-0.2,0.3-0.4,0.5     l-10.6,8.8l11.8,11.5c0.4,0.3,0.6,0.6,0.6,0.8c0,0.3-0.1,0.5-0.3,0.7c-0.2,0.2-0.4,0.3-0.7,0.3h-2.4c-0.5,0-0.8-0.1-1-0.2     c-0.2-0.1-0.5-0.3-0.8-0.6l-10.3-9.8v9.5c0,0.3-0.1,0.6-0.3,0.8c-0.2,0.2-0.5,0.3-0.8,0.3H381.1z"></path>
			<path class="st2" d="M412.6,247.2c-3.2,0-5.7-1-7.5-2.9c-1.9-1.9-2.9-4.6-3.1-8c0-0.4,0-0.9,0-1.5c0-0.6,0-1.1,0-1.5     c0.1-2.2,0.6-4.1,1.5-5.7c0.9-1.6,2.1-2.9,3.7-3.8c1.5-0.9,3.4-1.3,5.5-1.3c2.3,0,4.3,0.5,5.9,1.5c1.6,1,2.8,2.4,3.6,4.2     c0.8,1.8,1.2,3.9,1.2,6.3v0.8c0,0.3-0.1,0.6-0.3,0.8c-0.2,0.2-0.5,0.3-0.8,0.3h-15.9c0,0,0,0.1,0,0.2c0,0.1,0,0.2,0,0.2     c0.1,1.3,0.3,2.4,0.8,3.5c0.5,1.1,1.2,2,2.1,2.6c0.9,0.7,2,1,3.3,1c1.1,0,2-0.2,2.8-0.5c0.7-0.3,1.3-0.7,1.8-1.1s0.8-0.7,0.9-0.9     c0.3-0.4,0.5-0.6,0.6-0.7c0.2-0.1,0.4-0.1,0.7-0.1h2.2c0.3,0,0.6,0.1,0.8,0.3c0.2,0.2,0.3,0.4,0.3,0.7c0,0.5-0.3,1-0.7,1.7     c-0.5,0.7-1.1,1.3-2,2c-0.9,0.6-1.9,1.2-3.1,1.6C415.6,247,414.2,247.2,412.6,247.2z M406.3,233h12.6v-0.1c0-1.4-0.3-2.6-0.8-3.7     c-0.5-1.1-1.2-1.9-2.2-2.6c-1-0.6-2.1-0.9-3.4-0.9c-1.3,0-2.4,0.3-3.4,0.9c-0.9,0.6-1.6,1.5-2.1,2.6c-0.5,1.1-0.7,2.3-0.7,3.7     V233z"></path>
			<path class="st2" d="M438.4,246.7c-1.7,0-3.1-0.3-4.2-1c-1.1-0.7-1.9-1.6-2.3-2.8c-0.5-1.2-0.7-2.6-0.7-4.3v-12.1h-3.6     c-0.3,0-0.6-0.1-0.8-0.3c-0.2-0.2-0.3-0.5-0.3-0.8v-1.6c0-0.3,0.1-0.6,0.3-0.8c0.2-0.2,0.5-0.3,0.8-0.3h3.6v-7.7     c0-0.3,0.1-0.6,0.3-0.8c0.2-0.2,0.5-0.3,0.8-0.3h2.2c0.3,0,0.6,0.1,0.8,0.3c0.2,0.2,0.3,0.5,0.3,0.8v7.7h5.7     c0.3,0,0.6,0.1,0.8,0.3c0.2,0.2,0.3,0.5,0.3,0.8v1.6c0,0.3-0.1,0.6-0.3,0.8c-0.2,0.2-0.5,0.3-0.8,0.3h-5.7v11.8     c0,1.4,0.2,2.6,0.7,3.4c0.5,0.8,1.4,1.2,2.6,1.2h2.8c0.3,0,0.6,0.1,0.8,0.3c0.2,0.2,0.3,0.5,0.3,0.8v1.7c0,0.3-0.1,0.6-0.3,0.8     c-0.2,0.2-0.5,0.3-0.8,0.3H438.4z"></path>
			<path class="st2" d="M456.3,246.7c-0.2,0-0.5-0.1-0.6-0.3c-0.2-0.2-0.3-0.4-0.3-0.6c0-0.2,0-0.3,0-0.5l11.4-29.8     c0.1-0.3,0.3-0.6,0.5-0.7c0.2-0.2,0.5-0.3,1-0.3h3.1c0.4,0,0.7,0.1,0.9,0.3c0.2,0.2,0.4,0.4,0.5,0.7l11.4,29.8     c0.1,0.2,0.1,0.4,0.1,0.5c0,0.2-0.1,0.5-0.3,0.6c-0.2,0.2-0.4,0.3-0.6,0.3h-2.3c-0.4,0-0.6-0.1-0.8-0.3c-0.2-0.2-0.3-0.4-0.3-0.5     l-2.5-6.5h-15.1l-2.5,6.5c0,0.2-0.1,0.3-0.3,0.5c-0.2,0.2-0.5,0.3-0.8,0.3H456.3z M463.6,235.4H476l-6.2-16.3L463.6,235.4z"></path>
			<path class="st2" d="M490.1,255.4c-0.3,0-0.6-0.1-0.8-0.3c-0.2-0.2-0.3-0.5-0.3-0.8v-30.5c0-0.3,0.1-0.6,0.3-0.8     c0.2-0.2,0.5-0.3,0.8-0.3h2.1c0.3,0,0.6,0.1,0.8,0.3c0.2,0.2,0.3,0.5,0.3,0.8v2c0.7-1,1.7-1.9,2.9-2.5c1.2-0.7,2.8-1,4.6-1     c1.7,0,3.2,0.3,4.4,0.9c1.2,0.6,2.2,1.4,3,2.4c0.8,1,1.4,2.2,1.8,3.5c0.4,1.3,0.6,2.7,0.6,4.1c0,0.5,0,1,0,1.6s0,1.1,0,1.6     c0,1.4-0.2,2.8-0.6,4.1c-0.4,1.3-1,2.5-1.8,3.5c-0.8,1-1.8,1.8-3,2.4c-1.2,0.6-2.7,0.9-4.4,0.9c-1.8,0-3.3-0.3-4.5-1     c-1.2-0.7-2.2-1.5-3-2.5v10.7c0,0.3-0.1,0.6-0.3,0.8c-0.2,0.2-0.4,0.3-0.8,0.3H490.1z M499.9,243.4c1.6,0,2.8-0.3,3.7-1     c0.9-0.7,1.6-1.6,2-2.7c0.4-1.1,0.6-2.3,0.7-3.6c0-0.9,0-1.8,0-2.7c-0.1-1.3-0.3-2.5-0.7-3.6c-0.4-1.1-1.1-2-2-2.7     c-0.9-0.7-2.2-1-3.7-1c-1.5,0-2.7,0.4-3.7,1.1c-0.9,0.7-1.6,1.6-2.1,2.7c-0.4,1.1-0.7,2.2-0.8,3.3c0,0.5,0,1.1,0,1.7     c0,0.7,0,1.3,0,1.8c0,1.1,0.3,2.1,0.8,3.2c0.5,1,1.2,1.9,2.1,2.6C497.2,243.1,498.4,243.4,499.9,243.4z"></path>
			<path class="st2" d="M517.9,255.4c-0.3,0-0.6-0.1-0.8-0.3c-0.2-0.2-0.3-0.5-0.3-0.8v-30.5c0-0.3,0.1-0.6,0.3-0.8     c0.2-0.2,0.5-0.3,0.8-0.3h2.1c0.3,0,0.6,0.1,0.8,0.3c0.2,0.2,0.3,0.5,0.3,0.8v2c0.7-1,1.7-1.9,2.9-2.5c1.2-0.7,2.8-1,4.6-1     c1.7,0,3.2,0.3,4.4,0.9c1.2,0.6,2.2,1.4,3,2.4c0.8,1,1.4,2.2,1.8,3.5c0.4,1.3,0.6,2.7,0.6,4.1c0,0.5,0,1,0,1.6s0,1.1,0,1.6     c0,1.4-0.2,2.8-0.6,4.1c-0.4,1.3-1,2.5-1.8,3.5c-0.8,1-1.8,1.8-3,2.4c-1.2,0.6-2.7,0.9-4.4,0.9c-1.8,0-3.3-0.3-4.5-1     c-1.2-0.7-2.2-1.5-3-2.5v10.7c0,0.3-0.1,0.6-0.3,0.8c-0.2,0.2-0.4,0.3-0.8,0.3H517.9z M527.7,243.4c1.6,0,2.8-0.3,3.7-1     c0.9-0.7,1.6-1.6,2-2.7c0.4-1.1,0.6-2.3,0.7-3.6c0-0.9,0-1.8,0-2.7c-0.1-1.3-0.3-2.5-0.7-3.6c-0.4-1.1-1.1-2-2-2.7     c-0.9-0.7-2.2-1-3.7-1c-1.5,0-2.7,0.4-3.7,1.1c-0.9,0.7-1.6,1.6-2.1,2.7c-0.4,1.1-0.7,2.2-0.8,3.3c0,0.5,0,1.1,0,1.7     c0,0.7,0,1.3,0,1.8c0,1.1,0.3,2.1,0.8,3.2c0.5,1,1.2,1.9,2.1,2.6C525,243.1,526.2,243.4,527.7,243.4z"></path>
			<path class="st2" d="M545.6,246.7c-0.3,0-0.6-0.1-0.8-0.3c-0.2-0.2-0.3-0.5-0.3-0.8v-21.8c0-0.3,0.1-0.6,0.3-0.8     c0.2-0.2,0.5-0.3,0.8-0.3h2.1c0.3,0,0.6,0.1,0.8,0.3c0.2,0.2,0.3,0.5,0.3,0.8v2c0.6-1,1.5-1.8,2.5-2.3c1.1-0.5,2.4-0.8,3.9-0.8     h1.8c0.3,0,0.6,0.1,0.7,0.3c0.2,0.2,0.3,0.5,0.3,0.8v1.9c0,0.3-0.1,0.6-0.3,0.7c-0.2,0.2-0.4,0.3-0.7,0.3h-2.8     c-1.7,0-3,0.5-3.9,1.4c-1,1-1.4,2.3-1.4,3.9v13.5c0,0.3-0.1,0.6-0.3,0.8c-0.2,0.2-0.5,0.3-0.8,0.3H545.6z"></path>
			<path class="st2" d="M571.8,247.2c-2.3,0-4.3-0.4-5.8-1.3s-2.8-2.1-3.6-3.7c-0.8-1.6-1.3-3.4-1.4-5.4c0-0.5,0-1.2,0-2     c0-0.8,0-1.5,0-2c0.1-2.1,0.6-3.9,1.4-5.4c0.8-1.6,2-2.8,3.6-3.7c1.6-0.9,3.5-1.3,5.8-1.3c2.3,0,4.2,0.4,5.8,1.3s2.8,2.1,3.6,3.7     c0.8,1.6,1.3,3.4,1.4,5.4c0,0.5,0,1.1,0,2c0,0.8,0,1.5,0,2c-0.1,2-0.6,3.8-1.4,5.4c-0.8,1.6-2,2.8-3.6,3.7     S574.1,247.2,571.8,247.2z M571.8,243.6c1.9,0,3.4-0.6,4.6-1.8c1.1-1.2,1.7-3,1.8-5.3c0-0.5,0-1,0-1.7c0-0.7,0-1.3,0-1.7     c-0.1-2.3-0.7-4.1-1.8-5.3c-1.1-1.2-2.7-1.8-4.6-1.8c-1.9,0-3.4,0.6-4.6,1.8c-1.1,1.2-1.8,3-1.8,5.3c0,0.5,0,1,0,1.7     c0,0.7,0,1.3,0,1.7c0.1,2.3,0.7,4.1,1.8,5.3C568.3,243,569.9,243.6,571.8,243.6z"></path>
			<path class="st2" d="M595.4,247.2c-1.5,0-2.9-0.3-4.2-0.9c-1.3-0.6-2.3-1.4-3-2.5c-0.8-1-1.1-2.2-1.1-3.5c0-2.1,0.9-3.8,2.6-5.1     c1.7-1.3,4-2.1,6.7-2.5l6.9-1v-1.3c0-1.5-0.4-2.6-1.3-3.5c-0.8-0.8-2.2-1.2-4.1-1.2c-1.4,0-2.5,0.3-3.3,0.8     c-0.8,0.6-1.4,1.3-1.8,2.1c-0.2,0.5-0.5,0.7-1,0.7h-2.1c-0.3,0-0.6-0.1-0.8-0.3c-0.2-0.2-0.3-0.4-0.3-0.7c0-0.5,0.2-1,0.5-1.7     s0.9-1.3,1.6-2c0.7-0.6,1.7-1.2,2.8-1.6c1.1-0.4,2.6-0.7,4.2-0.7c1.8,0,3.4,0.2,4.6,0.7c1.3,0.5,2.2,1.1,3,1.9     c0.7,0.8,1.2,1.7,1.6,2.7c0.3,1,0.5,2,0.5,3.1v14.9c0,0.3-0.1,0.6-0.3,0.8c-0.2,0.2-0.5,0.3-0.8,0.3h-2.1c-0.3,0-0.6-0.1-0.8-0.3     c-0.2-0.2-0.3-0.5-0.3-0.8v-2c-0.4,0.6-0.9,1.1-1.6,1.6c-0.7,0.5-1.5,1-2.5,1.3C598.1,247,596.9,247.2,595.4,247.2z M596.4,243.7     c1.3,0,2.4-0.3,3.5-0.8c1-0.5,1.9-1.4,2.5-2.5c0.6-1.1,0.9-2.6,0.9-4.3v-1.3l-5.3,0.8c-2.2,0.3-3.8,0.8-4.9,1.5s-1.7,1.6-1.7,2.7     c0,0.9,0.3,1.6,0.8,2.1c0.5,0.6,1.1,1,1.9,1.3C594.7,243.6,595.6,243.7,596.4,243.7z"></path>
			<path class="st2" d="M624.2,247.2c-2.2,0-4.1-0.4-5.6-1.3c-1.6-0.8-2.8-2.1-3.7-3.6c-0.9-1.6-1.3-3.5-1.4-5.7c0-0.5,0-1.1,0-1.8     s0-1.4,0-1.8c0.1-2.2,0.5-4.1,1.4-5.7c0.9-1.6,2.1-2.8,3.7-3.6c1.6-0.8,3.5-1.3,5.6-1.3c1.8,0,3.3,0.2,4.6,0.7     c1.3,0.5,2.3,1.1,3.2,1.9s1.4,1.6,1.9,2.5c0.4,0.9,0.6,1.7,0.7,2.5c0,0.3-0.1,0.6-0.3,0.7c-0.2,0.2-0.5,0.3-0.8,0.3h-2.2     c-0.3,0-0.5-0.1-0.7-0.2c-0.2-0.1-0.3-0.4-0.5-0.7c-0.6-1.5-1.3-2.6-2.3-3.2c-1-0.6-2.1-0.9-3.5-0.9c-1.8,0-3.3,0.6-4.5,1.7     c-1.1,1.1-1.8,3-1.9,5.5c0,1.1,0,2.2,0,3.2c0.1,2.5,0.7,4.4,1.9,5.5s2.6,1.7,4.5,1.7c1.4,0,2.6-0.3,3.5-0.9     c1-0.6,1.7-1.7,2.3-3.2c0.2-0.3,0.3-0.6,0.5-0.7c0.2-0.1,0.4-0.2,0.7-0.2h2.2c0.3,0,0.6,0.1,0.8,0.3c0.2,0.2,0.3,0.4,0.3,0.7     c0,0.6-0.2,1.3-0.4,2c-0.2,0.7-0.6,1.4-1.2,2c-0.5,0.7-1.2,1.3-2,1.8c-0.8,0.5-1.8,1-2.9,1.3C626.8,247,625.6,247.2,624.2,247.2z     "></path>
			<path class="st2" d="M641.4,246.7c-0.3,0-0.6-0.1-0.8-0.3c-0.2-0.2-0.3-0.5-0.3-0.8v-30.5c0-0.3,0.1-0.6,0.3-0.8     c0.2-0.2,0.5-0.3,0.8-0.3h2.3c0.3,0,0.6,0.1,0.8,0.3c0.2,0.2,0.3,0.5,0.3,0.8v10.7c0.8-1,1.8-1.9,3-2.5c1.2-0.6,2.7-1,4.6-1     c2,0,3.7,0.4,5.1,1.3c1.4,0.9,2.5,2.1,3.2,3.6c0.7,1.5,1.1,3.4,1.1,5.4v13c0,0.3-0.1,0.6-0.3,0.8s-0.4,0.3-0.8,0.3h-2.3     c-0.3,0-0.6-0.1-0.8-0.3c-0.2-0.2-0.3-0.5-0.3-0.8v-12.7c0-2.1-0.5-3.8-1.6-5c-1-1.2-2.6-1.8-4.6-1.8c-1.9,0-3.4,0.6-4.6,1.8     c-1.2,1.2-1.7,2.9-1.7,5v12.7c0,0.3-0.1,0.6-0.3,0.8s-0.4,0.3-0.8,0.3H641.4z"></path>
			<path class="st2" d="M682.9,246.7c-0.3,0-0.6-0.1-0.8-0.3c-0.2-0.2-0.3-0.5-0.3-0.8v-19.2h-3.9c-0.3,0-0.6-0.1-0.8-0.3     c-0.2-0.2-0.3-0.5-0.3-0.8v-1.6c0-0.3,0.1-0.6,0.3-0.8c0.2-0.2,0.5-0.3,0.8-0.3h3.9v-2.3c0-1.6,0.3-2.9,0.8-4.1     c0.5-1.2,1.4-2.1,2.5-2.7c1.1-0.6,2.7-1,4.6-1h2.8c0.3,0,0.6,0.1,0.7,0.3c0.2,0.2,0.3,0.5,0.3,0.8v1.6c0,0.3-0.1,0.6-0.3,0.8     c-0.2,0.2-0.4,0.3-0.7,0.3h-2.7c-1.4,0-2.4,0.4-2.9,1.1c-0.5,0.8-0.8,1.8-0.8,3.2v2.1h5.9c0.3,0,0.6,0.1,0.7,0.3     c0.2,0.2,0.3,0.5,0.3,0.8v1.6c0,0.3-0.1,0.6-0.3,0.8c-0.2,0.2-0.4,0.3-0.7,0.3h-5.9v19.2c0,0.3-0.1,0.6-0.3,0.8     c-0.2,0.2-0.5,0.3-0.8,0.3H682.9z"></path>
			<path class="st2" d="M706.8,247.2c-2.3,0-4.3-0.4-5.8-1.3s-2.8-2.1-3.6-3.7c-0.8-1.6-1.3-3.4-1.4-5.4c0-0.5,0-1.2,0-2     c0-0.8,0-1.5,0-2c0.1-2.1,0.6-3.9,1.4-5.4c0.8-1.6,2-2.8,3.6-3.7c1.6-0.9,3.5-1.3,5.8-1.3c2.3,0,4.2,0.4,5.8,1.3s2.8,2.1,3.6,3.7     c0.8,1.6,1.3,3.4,1.4,5.4c0,0.5,0,1.1,0,2c0,0.8,0,1.5,0,2c-0.1,2-0.6,3.8-1.4,5.4c-0.8,1.6-2,2.8-3.6,3.7     S709.2,247.2,706.8,247.2z M706.8,243.6c1.9,0,3.4-0.6,4.6-1.8c1.1-1.2,1.7-3,1.8-5.3c0-0.5,0-1,0-1.7c0-0.7,0-1.3,0-1.7     c-0.1-2.3-0.7-4.1-1.8-5.3c-1.1-1.2-2.7-1.8-4.6-1.8c-1.9,0-3.4,0.6-4.6,1.8c-1.1,1.2-1.8,3-1.8,5.3c0,0.5,0,1,0,1.7     c0,0.7,0,1.3,0,1.7c0.1,2.3,0.7,4.1,1.8,5.3C703.4,243,704.9,243.6,706.8,243.6z"></path>
			<path class="st2" d="M724.9,246.7c-0.3,0-0.6-0.1-0.8-0.3c-0.2-0.2-0.3-0.5-0.3-0.8v-21.8c0-0.3,0.1-0.6,0.3-0.8     c0.2-0.2,0.5-0.3,0.8-0.3h2.1c0.3,0,0.6,0.1,0.8,0.3c0.2,0.2,0.3,0.5,0.3,0.8v2c0.6-1,1.5-1.8,2.5-2.3c1.1-0.5,2.4-0.8,3.9-0.8     h1.8c0.3,0,0.6,0.1,0.7,0.3c0.2,0.2,0.3,0.5,0.3,0.8v1.9c0,0.3-0.1,0.6-0.3,0.7c-0.2,0.2-0.4,0.3-0.7,0.3h-2.8     c-1.7,0-3,0.5-3.9,1.4c-1,1-1.4,2.3-1.4,3.9v13.5c0,0.3-0.1,0.6-0.3,0.8c-0.2,0.2-0.5,0.3-0.8,0.3H724.9z"></path>
			<path class="st2" d="M753.9,246.7c-0.3,0-0.6-0.1-0.8-0.3c-0.2-0.2-0.3-0.5-0.3-0.8v-30c0-0.3,0.1-0.6,0.3-0.8     c0.2-0.2,0.4-0.3,0.8-0.3h11.2c3.5,0,6.2,0.8,8.2,2.4c2,1.6,3,4,3,7.2c0,2.4-0.6,4.3-1.8,5.8c-1.2,1.5-2.8,2.5-4.8,3.1l7.1,12.2     c0.1,0.2,0.1,0.4,0.1,0.5c0,0.2-0.1,0.5-0.3,0.6c-0.2,0.2-0.4,0.3-0.7,0.3h-2.2c-0.5,0-0.9-0.1-1.1-0.4c-0.2-0.3-0.5-0.6-0.6-0.8     l-6.7-11.7h-8.1v11.9c0,0.3-0.1,0.6-0.3,0.8c-0.2,0.2-0.5,0.3-0.8,0.3H753.9z M757.3,229.9h7.6c2.3,0,4-0.5,5.2-1.4     c1.1-1,1.7-2.4,1.7-4.3c0-1.9-0.6-3.3-1.7-4.3c-1.1-1-2.8-1.5-5.2-1.5h-7.6V229.9z"></path>
			<path class="st2" d="M792,247.2c-3.2,0-5.7-1-7.5-2.9c-1.9-1.9-2.9-4.6-3.1-8c0-0.4,0-0.9,0-1.5c0-0.6,0-1.1,0-1.5     c0.1-2.2,0.6-4.1,1.5-5.7c0.9-1.6,2.1-2.9,3.7-3.8c1.5-0.9,3.4-1.3,5.5-1.3c2.3,0,4.3,0.5,5.9,1.5c1.6,1,2.8,2.4,3.6,4.2     c0.8,1.8,1.2,3.9,1.2,6.3v0.8c0,0.3-0.1,0.6-0.3,0.8c-0.2,0.2-0.5,0.3-0.8,0.3h-15.9c0,0,0,0.1,0,0.2c0,0.1,0,0.2,0,0.2     c0.1,1.3,0.3,2.4,0.8,3.5c0.5,1.1,1.2,2,2.1,2.6c0.9,0.7,2,1,3.3,1c1.1,0,2-0.2,2.8-0.5c0.7-0.3,1.3-0.7,1.8-1.1s0.8-0.7,0.9-0.9     c0.3-0.4,0.5-0.6,0.6-0.7c0.2-0.1,0.4-0.1,0.7-0.1h2.2c0.3,0,0.6,0.1,0.8,0.3c0.2,0.2,0.3,0.4,0.3,0.7c0,0.5-0.3,1-0.7,1.7     c-0.5,0.7-1.1,1.3-2,2c-0.9,0.6-1.9,1.2-3.1,1.6C795,247,793.6,247.2,792,247.2z M785.7,233h12.6v-0.1c0-1.4-0.3-2.6-0.8-3.7     c-0.5-1.1-1.2-1.9-2.2-2.6c-1-0.6-2.1-0.9-3.4-0.9c-1.3,0-2.4,0.3-3.4,0.9c-0.9,0.6-1.6,1.5-2.1,2.6c-0.5,1.1-0.7,2.3-0.7,3.7     V233z"></path>
			<path class="st2" d="M816.9,247.2c-1.7,0-3.2-0.2-4.4-0.6c-1.2-0.4-2.2-1-3-1.6c-0.8-0.6-1.3-1.2-1.7-1.8     c-0.4-0.6-0.6-1.1-0.6-1.5c0-0.3,0.1-0.6,0.3-0.8c0.2-0.2,0.5-0.3,0.7-0.3h2c0.2,0,0.3,0,0.4,0.1c0.1,0,0.3,0.2,0.4,0.4     c0.4,0.4,0.8,0.9,1.3,1.3c0.5,0.4,1.1,0.8,1.8,1.1c0.7,0.3,1.6,0.4,2.7,0.4c1.6,0,2.9-0.3,3.9-0.9s1.5-1.5,1.5-2.6     c0-0.8-0.2-1.4-0.6-1.8c-0.4-0.5-1.2-0.9-2.2-1.2c-1.1-0.4-2.5-0.8-4.3-1.1c-1.8-0.4-3.3-1-4.4-1.6c-1.1-0.6-1.8-1.4-2.3-2.3     s-0.7-1.9-0.7-3c0-1.1,0.3-2.2,1-3.3c0.7-1.1,1.7-1.9,3-2.6c1.3-0.7,2.9-1,4.9-1c1.6,0,3,0.2,4.1,0.6c1.1,0.4,2.1,0.9,2.8,1.5     c0.7,0.6,1.3,1.2,1.7,1.8s0.6,1.1,0.6,1.5c0,0.3-0.1,0.6-0.3,0.8c-0.2,0.2-0.5,0.3-0.7,0.3h-1.9c-0.2,0-0.4,0-0.5-0.1     s-0.3-0.2-0.4-0.3c-0.3-0.4-0.7-0.8-1.1-1.2s-1-0.7-1.6-1c-0.7-0.3-1.5-0.4-2.6-0.4c-1.5,0-2.7,0.3-3.5,1     c-0.8,0.6-1.2,1.5-1.2,2.4c0,0.6,0.2,1.1,0.5,1.6s1,0.9,1.9,1.2c1,0.4,2.4,0.8,4.2,1.2c2,0.4,3.6,0.9,4.8,1.6     c1.2,0.7,2,1.5,2.5,2.3c0.5,0.9,0.7,1.9,0.7,3.1c0,1.3-0.4,2.5-1.1,3.5c-0.8,1.1-1.9,1.9-3.3,2.6     C820.8,246.8,819,247.2,816.9,247.2z"></path>
			<path class="st2" d="M842.2,247.2c-2.3,0-4.3-0.4-5.8-1.3c-1.6-0.9-2.8-2.1-3.6-3.7c-0.8-1.6-1.3-3.4-1.4-5.4c0-0.5,0-1.2,0-2     c0-0.8,0-1.5,0-2c0.1-2.1,0.6-3.9,1.4-5.4c0.8-1.6,2-2.8,3.6-3.7c1.6-0.9,3.5-1.3,5.8-1.3s4.2,0.4,5.8,1.3     c1.6,0.9,2.8,2.1,3.6,3.7c0.8,1.6,1.3,3.4,1.4,5.4c0,0.5,0,1.1,0,2c0,0.8,0,1.5,0,2c-0.1,2-0.6,3.8-1.4,5.4     c-0.8,1.6-2,2.8-3.6,3.7C846.5,246.7,844.5,247.2,842.2,247.2z M842.2,243.6c1.9,0,3.4-0.6,4.6-1.8c1.1-1.2,1.7-3,1.8-5.3     c0-0.5,0-1,0-1.7c0-0.7,0-1.3,0-1.7c-0.1-2.3-0.7-4.1-1.8-5.3c-1.1-1.2-2.7-1.8-4.6-1.8c-1.9,0-3.4,0.6-4.6,1.8     c-1.2,1.2-1.8,3-1.8,5.3c0,0.5,0,1,0,1.7c0,0.7,0,1.3,0,1.7c0.1,2.3,0.7,4.1,1.8,5.3C838.8,243,840.3,243.6,842.2,243.6z"></path>
			<path class="st2" d="M860.3,246.7c-0.3,0-0.6-0.1-0.8-0.3c-0.2-0.2-0.3-0.5-0.3-0.8v-30.5c0-0.3,0.1-0.6,0.3-0.8     c0.2-0.2,0.5-0.3,0.8-0.3h2.2c0.3,0,0.6,0.1,0.8,0.3c0.2,0.2,0.3,0.5,0.3,0.8v30.5c0,0.3-0.1,0.6-0.3,0.8     c-0.2,0.2-0.4,0.3-0.8,0.3H860.3z"></path>
			<path class="st2" d="M879.6,247.2c-2,0-3.6-0.4-5-1.3c-1.4-0.9-2.4-2.1-3.1-3.7c-0.7-1.6-1.1-3.4-1.1-5.4v-13     c0-0.3,0.1-0.6,0.3-0.8c0.2-0.2,0.5-0.3,0.8-0.3h2.3c0.3,0,0.6,0.1,0.8,0.3c0.2,0.2,0.3,0.5,0.3,0.8v12.7c0,4.6,2,6.9,6,6.9     c1.9,0,3.4-0.6,4.6-1.8c1.1-1.2,1.7-2.9,1.7-5v-12.7c0-0.3,0.1-0.6,0.3-0.8c0.2-0.2,0.5-0.3,0.8-0.3h2.3c0.3,0,0.6,0.1,0.8,0.3     c0.2,0.2,0.3,0.5,0.3,0.8v21.8c0,0.3-0.1,0.6-0.3,0.8c-0.2,0.2-0.4,0.3-0.8,0.3h-2.1c-0.3,0-0.6-0.1-0.8-0.3s-0.3-0.5-0.3-0.8v-2     c-0.8,1.1-1.8,1.9-3,2.6C883.1,246.8,881.6,247.2,879.6,247.2z"></path>
			<path class="st2" d="M908.1,246.7c-1.7,0-3.1-0.3-4.2-1c-1.1-0.7-1.9-1.6-2.3-2.8c-0.5-1.2-0.7-2.6-0.7-4.3v-12.1h-3.6     c-0.3,0-0.6-0.1-0.8-0.3c-0.2-0.2-0.3-0.5-0.3-0.8v-1.6c0-0.3,0.1-0.6,0.3-0.8c0.2-0.2,0.5-0.3,0.8-0.3h3.6v-7.7     c0-0.3,0.1-0.6,0.3-0.8c0.2-0.2,0.5-0.3,0.8-0.3h2.2c0.3,0,0.6,0.1,0.8,0.3c0.2,0.2,0.3,0.5,0.3,0.8v7.7h5.7     c0.3,0,0.6,0.1,0.8,0.3c0.2,0.2,0.3,0.5,0.3,0.8v1.6c0,0.3-0.1,0.6-0.3,0.8c-0.2,0.2-0.5,0.3-0.8,0.3h-5.7v11.8     c0,1.4,0.2,2.6,0.7,3.4c0.5,0.8,1.4,1.2,2.6,1.2h2.8c0.3,0,0.6,0.1,0.8,0.3s0.3,0.5,0.3,0.8v1.7c0,0.3-0.1,0.6-0.3,0.8     s-0.5,0.3-0.8,0.3H908.1z"></path>
			<path class="st2" d="M917.8,218.3c-0.3,0-0.6-0.1-0.8-0.3c-0.2-0.2-0.3-0.5-0.3-0.8v-2.5c0-0.3,0.1-0.6,0.3-0.8     c0.2-0.2,0.5-0.3,0.8-0.3h2.9c0.3,0,0.6,0.1,0.8,0.3c0.2,0.2,0.3,0.5,0.3,0.8v2.5c0,0.3-0.1,0.6-0.3,0.8     c-0.2,0.2-0.5,0.3-0.8,0.3H917.8z M918.2,246.7c-0.3,0-0.6-0.1-0.8-0.3c-0.2-0.2-0.3-0.5-0.3-0.8v-21.8c0-0.3,0.1-0.6,0.3-0.8     c0.2-0.2,0.5-0.3,0.8-0.3h2.2c0.3,0,0.6,0.1,0.7,0.3c0.2,0.2,0.3,0.5,0.3,0.8v21.8c0,0.3-0.1,0.6-0.3,0.8     c-0.2,0.2-0.4,0.3-0.7,0.3H918.2z"></path>
			<path class="st2" d="M938.4,247.2c-2.3,0-4.3-0.4-5.8-1.3c-1.6-0.9-2.8-2.1-3.6-3.7c-0.8-1.6-1.3-3.4-1.4-5.4c0-0.5,0-1.2,0-2     c0-0.8,0-1.5,0-2c0.1-2.1,0.6-3.9,1.4-5.4c0.8-1.6,2-2.8,3.6-3.7c1.6-0.9,3.5-1.3,5.8-1.3s4.2,0.4,5.8,1.3     c1.6,0.9,2.8,2.1,3.6,3.7c0.8,1.6,1.3,3.4,1.4,5.4c0,0.5,0,1.1,0,2c0,0.8,0,1.5,0,2c-0.1,2-0.6,3.8-1.4,5.4     c-0.8,1.6-2,2.8-3.6,3.7C942.7,246.7,940.8,247.2,938.4,247.2z M938.4,243.6c1.9,0,3.4-0.6,4.6-1.8c1.1-1.2,1.7-3,1.8-5.3     c0-0.5,0-1,0-1.7c0-0.7,0-1.3,0-1.7c-0.1-2.3-0.7-4.1-1.8-5.3c-1.1-1.2-2.7-1.8-4.6-1.8c-1.9,0-3.4,0.6-4.6,1.8     c-1.2,1.2-1.8,3-1.8,5.3c0,0.5,0,1,0,1.7c0,0.7,0,1.3,0,1.7c0.1,2.3,0.7,4.1,1.8,5.3C935,243,936.5,243.6,938.4,243.6z"></path>
			<path class="st2" d="M956.5,246.7c-0.3,0-0.6-0.1-0.8-0.3c-0.2-0.2-0.3-0.5-0.3-0.8v-21.8c0-0.3,0.1-0.6,0.3-0.8     c0.2-0.2,0.5-0.3,0.8-0.3h2.2c0.3,0,0.6,0.1,0.8,0.3c0.2,0.2,0.3,0.5,0.3,0.8v2c0.8-1,1.8-1.9,3-2.6c1.2-0.7,2.8-1,4.7-1     c2,0,3.7,0.4,5.1,1.3c1.4,0.9,2.4,2.1,3.2,3.6s1.1,3.4,1.1,5.4v13c0,0.3-0.1,0.6-0.3,0.8c-0.2,0.2-0.4,0.3-0.7,0.3h-2.3     c-0.3,0-0.6-0.1-0.8-0.3c-0.2-0.2-0.3-0.5-0.3-0.8v-12.7c0-2.1-0.5-3.8-1.6-5c-1-1.2-2.6-1.8-4.6-1.8c-1.9,0-3.4,0.6-4.6,1.8     c-1.2,1.2-1.7,2.9-1.7,5v12.7c0,0.3-0.1,0.6-0.3,0.8c-0.2,0.2-0.5,0.3-0.8,0.3H956.5z"></path>
			<path class="st2" d="M1002.8,246.7c-0.3,0-0.6-0.1-0.8-0.3s-0.3-0.5-0.3-0.8v-27h-8.8c-0.3,0-0.6-0.1-0.8-0.3     c-0.2-0.2-0.3-0.5-0.3-0.8v-1.9c0-0.3,0.1-0.6,0.3-0.8c0.2-0.2,0.5-0.3,0.8-0.3h22.2c0.3,0,0.6,0.1,0.8,0.3     c0.2,0.2,0.3,0.5,0.3,0.8v1.9c0,0.3-0.1,0.6-0.3,0.8c-0.2,0.2-0.5,0.3-0.8,0.3h-8.8v27c0,0.3-0.1,0.6-0.3,0.8     c-0.2,0.2-0.5,0.3-0.8,0.3H1002.8z"></path>
			<path class="st2" d="M1021.3,246.7c-0.3,0-0.6-0.1-0.8-0.3c-0.2-0.2-0.3-0.5-0.3-0.8v-30.5c0-0.3,0.1-0.6,0.3-0.8     c0.2-0.2,0.5-0.3,0.8-0.3h2.3c0.3,0,0.6,0.1,0.8,0.3c0.2,0.2,0.3,0.5,0.3,0.8v10.7c0.8-1,1.8-1.9,3-2.5c1.2-0.6,2.7-1,4.6-1     c2,0,3.7,0.4,5.1,1.3s2.5,2.1,3.2,3.6s1.1,3.4,1.1,5.4v13c0,0.3-0.1,0.6-0.3,0.8c-0.2,0.2-0.4,0.3-0.8,0.3h-2.3     c-0.3,0-0.6-0.1-0.8-0.3s-0.3-0.5-0.3-0.8v-12.7c0-2.1-0.5-3.8-1.6-5c-1-1.2-2.6-1.8-4.6-1.8c-1.9,0-3.4,0.6-4.6,1.8     c-1.2,1.2-1.7,2.9-1.7,5v12.7c0,0.3-0.1,0.6-0.3,0.8c-0.2,0.2-0.4,0.3-0.8,0.3H1021.3z"></path>
			<path class="st2" d="M1049.7,246.7c-0.3,0-0.6-0.1-0.8-0.3c-0.2-0.2-0.3-0.5-0.3-0.8v-21.8c0-0.3,0.1-0.6,0.3-0.8     c0.2-0.2,0.5-0.3,0.8-0.3h2.1c0.3,0,0.6,0.1,0.8,0.3c0.2,0.2,0.3,0.5,0.3,0.8v2c0.6-1,1.5-1.8,2.5-2.3s2.4-0.8,3.9-0.8h1.8     c0.3,0,0.6,0.1,0.7,0.3c0.2,0.2,0.3,0.5,0.3,0.8v1.9c0,0.3-0.1,0.6-0.3,0.7c-0.2,0.2-0.4,0.3-0.7,0.3h-2.8c-1.7,0-3,0.5-3.9,1.4     c-1,1-1.4,2.3-1.4,3.9v13.5c0,0.3-0.1,0.6-0.3,0.8c-0.2,0.2-0.5,0.3-0.8,0.3H1049.7z"></path>
			<path class="st2" d="M1075.8,247.2c-2.3,0-4.3-0.4-5.8-1.3c-1.6-0.9-2.8-2.1-3.6-3.7c-0.8-1.6-1.3-3.4-1.4-5.4c0-0.5,0-1.2,0-2     c0-0.8,0-1.5,0-2c0.1-2.1,0.6-3.9,1.4-5.4c0.8-1.6,2-2.8,3.6-3.7c1.6-0.9,3.5-1.3,5.8-1.3s4.2,0.4,5.8,1.3     c1.6,0.9,2.8,2.1,3.6,3.7c0.8,1.6,1.3,3.4,1.4,5.4c0,0.5,0,1.1,0,2c0,0.8,0,1.5,0,2c-0.1,2-0.6,3.8-1.4,5.4     c-0.8,1.6-2,2.8-3.6,3.7C1080.1,246.7,1078.1,247.2,1075.8,247.2z M1075.8,243.6c1.9,0,3.4-0.6,4.6-1.8c1.1-1.2,1.7-3,1.8-5.3     c0-0.5,0-1,0-1.7c0-0.7,0-1.3,0-1.7c-0.1-2.3-0.7-4.1-1.8-5.3c-1.1-1.2-2.7-1.8-4.6-1.8c-1.9,0-3.4,0.6-4.6,1.8     c-1.2,1.2-1.8,3-1.8,5.3c0,0.5,0,1,0,1.7c0,0.7,0,1.3,0,1.7c0.1,2.3,0.7,4.1,1.8,5.3C1072.4,243,1073.9,243.6,1075.8,243.6z"></path>
			<path class="st2" d="M1101.7,247.2c-2,0-3.6-0.4-5-1.3c-1.4-0.9-2.4-2.1-3.1-3.7c-0.7-1.6-1.1-3.4-1.1-5.4v-13     c0-0.3,0.1-0.6,0.3-0.8c0.2-0.2,0.5-0.3,0.8-0.3h2.3c0.3,0,0.6,0.1,0.8,0.3c0.2,0.2,0.3,0.5,0.3,0.8v12.7c0,4.6,2,6.9,6,6.9     c1.9,0,3.4-0.6,4.6-1.8c1.1-1.2,1.7-2.9,1.7-5v-12.7c0-0.3,0.1-0.6,0.3-0.8c0.2-0.2,0.5-0.3,0.8-0.3h2.3c0.3,0,0.6,0.1,0.8,0.3     c0.2,0.2,0.3,0.5,0.3,0.8v21.8c0,0.3-0.1,0.6-0.3,0.8c-0.2,0.2-0.4,0.3-0.8,0.3h-2.1c-0.3,0-0.6-0.1-0.8-0.3s-0.3-0.5-0.3-0.8v-2     c-0.8,1.1-1.8,1.9-3,2.6C1105.2,246.8,1103.6,247.2,1101.7,247.2z"></path>
			<path class="st2" d="M1130.6,256.8c-2.1,0-3.8-0.3-5.1-0.8c-1.3-0.6-2.4-1.2-3.1-2c-0.8-0.8-1.3-1.6-1.6-2.3     c-0.3-0.8-0.5-1.4-0.5-1.9c0-0.3,0.1-0.6,0.3-0.8c0.2-0.2,0.5-0.3,0.8-0.3h2.2c0.3,0,0.5,0.1,0.7,0.2c0.2,0.1,0.3,0.4,0.5,0.8     c0.2,0.5,0.5,1,0.8,1.5c0.4,0.6,0.9,1.1,1.7,1.5s1.8,0.6,3.2,0.6c1.4,0,2.7-0.2,3.6-0.6c1-0.4,1.7-1.1,2.2-2c0.5-1,0.8-2.3,0.8-4     v-3.1c-0.7,1-1.7,1.7-2.9,2.4c-1.2,0.6-2.7,0.9-4.5,0.9c-1.7,0-3.2-0.3-4.4-0.9c-1.2-0.6-2.2-1.4-3-2.4c-0.8-1-1.4-2.2-1.7-3.5     s-0.6-2.7-0.7-4.1c0-0.9,0-1.7,0-2.5c0.1-1.4,0.3-2.8,0.7-4.1c0.4-1.3,1-2.5,1.7-3.5c0.8-1,1.8-1.9,3-2.5     c1.2-0.6,2.7-0.9,4.4-0.9c1.8,0,3.4,0.3,4.6,1c1.2,0.7,2.2,1.5,3,2.5v-2c0-0.3,0.1-0.6,0.3-0.8c0.2-0.2,0.5-0.3,0.8-0.3h2.1     c0.3,0,0.6,0.1,0.8,0.3c0.2,0.2,0.3,0.5,0.3,0.8v22.3c0,2.1-0.3,3.9-1,5.5c-0.7,1.6-1.8,2.9-3.4,3.8     C1135.4,256.4,1133.3,256.8,1130.6,256.8z M1130.5,243.2c1.5,0,2.8-0.4,3.7-1.1c0.9-0.7,1.6-1.6,2.1-2.7s0.7-2.2,0.7-3.3     c0-0.4,0-1,0-1.6c0-0.6,0-1.2,0-1.6c0-1.1-0.3-2.2-0.7-3.3s-1.1-2-2.1-2.7c-0.9-0.7-2.2-1.1-3.7-1.1c-1.5,0-2.8,0.3-3.7,1     c-0.9,0.7-1.6,1.6-2,2.7c-0.4,1.1-0.6,2.3-0.7,3.6c0,0.8,0,1.6,0,2.4c0.1,1.3,0.3,2.5,0.7,3.6c0.4,1.1,1.1,2,2,2.7     C1127.8,242.9,1129,243.2,1130.5,243.2z"></path>
			<path class="st2" d="M1149.8,246.7c-0.3,0-0.6-0.1-0.8-0.3c-0.2-0.2-0.3-0.5-0.3-0.8v-30.5c0-0.3,0.1-0.6,0.3-0.8     c0.2-0.2,0.5-0.3,0.8-0.3h2.3c0.3,0,0.6,0.1,0.8,0.3c0.2,0.2,0.3,0.5,0.3,0.8v10.7c0.8-1,1.8-1.9,3-2.5c1.2-0.6,2.7-1,4.6-1     c2,0,3.7,0.4,5.1,1.3s2.5,2.1,3.2,3.6s1.1,3.4,1.1,5.4v13c0,0.3-0.1,0.6-0.3,0.8c-0.2,0.2-0.4,0.3-0.8,0.3h-2.3     c-0.3,0-0.6-0.1-0.8-0.3s-0.3-0.5-0.3-0.8v-12.7c0-2.1-0.5-3.8-1.6-5c-1-1.2-2.6-1.8-4.6-1.8c-1.9,0-3.4,0.6-4.6,1.8     c-1.2,1.2-1.7,2.9-1.7,5v12.7c0,0.3-0.1,0.6-0.3,0.8c-0.2,0.2-0.4,0.3-0.8,0.3H1149.8z"></path>
			<path class="st2" d="M1200.8,247.2c-2.6,0-4.8-0.5-6.7-1.4c-1.9-0.9-3.3-2.3-4.3-4.2s-1.6-4.3-1.7-7.1c0-1.3,0-2.6,0-3.9     s0-2.5,0-3.9c0.1-2.8,0.7-5.2,1.8-7.1c1.1-1.9,2.5-3.3,4.4-4.2s4.1-1.4,6.6-1.4c2.5,0,4.7,0.5,6.6,1.4c1.9,0.9,3.4,2.3,4.4,4.2     c1.1,1.9,1.7,4.2,1.7,7.1c0.1,1.3,0.1,2.6,0.1,3.9s0,2.5-0.1,3.9c-0.1,2.9-0.7,5.2-1.7,7.1c-1,1.9-2.5,3.3-4.3,4.2     C1205.7,246.7,1203.4,247.2,1200.8,247.2z M1200.8,243.2c2.4,0,4.3-0.7,5.8-2.1c1.5-1.4,2.3-3.7,2.4-6.9c0.1-1.4,0.1-2.6,0.1-3.7     c0-1.1,0-2.3-0.1-3.7c-0.1-2.1-0.5-3.8-1.2-5.2c-0.7-1.3-1.7-2.3-2.9-2.9c-1.2-0.6-2.6-0.9-4.1-0.9c-1.5,0-2.9,0.3-4,0.9     c-1.2,0.6-2.2,1.6-2.9,2.9c-0.7,1.3-1.1,3-1.2,5.2c0,1.3,0,2.6,0,3.7c0,1.1,0,2.3,0,3.7c0.1,3.2,0.9,5.4,2.4,6.9     C1196.6,242.5,1198.5,243.2,1200.8,243.2z"></path>
			<path class="st2" d="M1221.8,246.7c-0.3,0-0.6-0.1-0.8-0.3c-0.2-0.2-0.3-0.5-0.3-0.8v-30c0-0.3,0.1-0.6,0.3-0.8     c0.2-0.2,0.4-0.3,0.8-0.3h10.4c3.2,0,5.7,0.5,7.6,1.4c1.9,1,3.3,2.4,4.2,4.2c0.9,1.9,1.3,4.1,1.4,6.8c0,1.4,0,2.6,0,3.6     s0,2.2,0,3.6c-0.1,2.8-0.5,5.2-1.4,7s-2.3,3.2-4.1,4.1c-1.9,0.9-4.4,1.4-7.5,1.4H1221.8z M1225.3,242.8h7c2.1,0,3.8-0.3,5.1-0.9     c1.3-0.6,2.2-1.5,2.7-2.8s0.9-3,0.9-5.1c0.1-0.9,0.1-1.7,0.1-2.4c0-0.7,0-1.4,0-2.1c0-0.7,0-1.5-0.1-2.4c-0.1-3-0.8-5.2-2.1-6.6     c-1.3-1.4-3.6-2.1-6.8-2.1h-6.8V242.8z"></path>
			<path class="st2" d="M1253.9,246.7c-0.3,0-0.6-0.1-0.8-0.3c-0.2-0.2-0.3-0.5-0.3-0.8v-30c0-0.3,0.1-0.6,0.3-0.8     c0.2-0.2,0.4-0.3,0.8-0.3h11.2c3.5,0,6.2,0.8,8.2,2.4c2,1.6,3,4,3,7.2c0,2.4-0.6,4.3-1.8,5.8c-1.2,1.5-2.8,2.5-4.8,3.1l7.1,12.2     c0.1,0.2,0.1,0.4,0.1,0.5c0,0.2-0.1,0.5-0.3,0.6c-0.2,0.2-0.4,0.3-0.7,0.3h-2.2c-0.5,0-0.9-0.1-1.2-0.4c-0.2-0.3-0.5-0.6-0.6-0.8     l-6.7-11.7h-8v11.9c0,0.3-0.1,0.6-0.3,0.8c-0.2,0.2-0.5,0.3-0.8,0.3H1253.9z M1257.3,229.9h7.6c2.3,0,4-0.5,5.2-1.4     c1.1-1,1.7-2.4,1.7-4.3c0-1.9-0.6-3.3-1.7-4.3c-1.1-1-2.8-1.5-5.2-1.5h-7.6V229.9z"></path>
			<path class="st2" d="M1296,246.7c-0.3,0-0.6-0.1-0.8-0.3c-0.2-0.2-0.3-0.5-0.3-0.8v-30c0-0.3,0.1-0.6,0.3-0.8     c0.2-0.2,0.4-0.3,0.8-0.3h11.7c2.3,0,4.2,0.4,5.9,1.1c1.7,0.7,3,1.8,3.9,3.3s1.4,3.3,1.4,5.5c0,2.2-0.5,4-1.4,5.4     s-2.2,2.5-3.9,3.3c-1.7,0.7-3.6,1.1-5.9,1.1h-8.1v11.5c0,0.3-0.1,0.6-0.3,0.8s-0.5,0.3-0.8,0.3H1296z M1299.5,230.3h8     c2.3,0,4-0.5,5.1-1.5c1.1-1,1.7-2.5,1.7-4.4c0-1.9-0.6-3.4-1.7-4.4c-1.1-1-2.8-1.6-5.2-1.6h-8V230.3z"></path>
			<path class="st2" d="M1333.8,247.2c-2.3,0-4.3-0.4-5.8-1.3c-1.6-0.9-2.8-2.1-3.6-3.7c-0.8-1.6-1.3-3.4-1.4-5.4c0-0.5,0-1.2,0-2     c0-0.8,0-1.5,0-2c0.1-2.1,0.6-3.9,1.4-5.4c0.8-1.6,2-2.8,3.6-3.7c1.6-0.9,3.5-1.3,5.8-1.3s4.2,0.4,5.8,1.3     c1.6,0.9,2.8,2.1,3.6,3.7c0.8,1.6,1.3,3.4,1.4,5.4c0,0.5,0,1.1,0,2c0,0.8,0,1.5,0,2c-0.1,2-0.6,3.8-1.4,5.4     c-0.8,1.6-2,2.8-3.6,3.7C1338,246.7,1336.1,247.2,1333.8,247.2z M1333.8,243.6c1.9,0,3.4-0.6,4.6-1.8c1.1-1.2,1.7-3,1.8-5.3     c0-0.5,0-1,0-1.7c0-0.7,0-1.3,0-1.7c-0.1-2.3-0.7-4.1-1.8-5.3c-1.1-1.2-2.7-1.8-4.6-1.8c-1.9,0-3.4,0.6-4.6,1.8     c-1.2,1.2-1.8,3-1.8,5.3c0,0.5,0,1,0,1.7c0,0.7,0,1.3,0,1.7c0.1,2.3,0.7,4.1,1.8,5.3C1330.3,243,1331.8,243.6,1333.8,243.6z"></path>
			<path class="st2" d="M1351.8,246.7c-0.3,0-0.6-0.1-0.8-0.3c-0.2-0.2-0.3-0.5-0.3-0.8v-21.8c0-0.3,0.1-0.6,0.3-0.8     c0.2-0.2,0.5-0.3,0.8-0.3h2.1c0.3,0,0.6,0.1,0.8,0.3c0.2,0.2,0.3,0.5,0.3,0.8v2c0.6-1,1.5-1.8,2.5-2.3s2.4-0.8,3.9-0.8h1.8     c0.3,0,0.6,0.1,0.7,0.3c0.2,0.2,0.3,0.5,0.3,0.8v1.9c0,0.3-0.1,0.6-0.3,0.7c-0.2,0.2-0.4,0.3-0.7,0.3h-2.8c-1.7,0-3,0.5-3.9,1.4     c-1,1-1.4,2.3-1.4,3.9v13.5c0,0.3-0.1,0.6-0.3,0.8c-0.2,0.2-0.5,0.3-0.8,0.3H1351.8z"></path>
			<path class="st2" d="M1377.9,246.7c-1.7,0-3.1-0.3-4.2-1c-1.1-0.7-1.9-1.6-2.3-2.8c-0.5-1.2-0.7-2.6-0.7-4.3v-12.1h-3.6     c-0.3,0-0.6-0.1-0.8-0.3c-0.2-0.2-0.3-0.5-0.3-0.8v-1.6c0-0.3,0.1-0.6,0.3-0.8c0.2-0.2,0.5-0.3,0.8-0.3h3.6v-7.7     c0-0.3,0.1-0.6,0.3-0.8c0.2-0.2,0.5-0.3,0.8-0.3h2.2c0.3,0,0.6,0.1,0.8,0.3c0.2,0.2,0.3,0.5,0.3,0.8v7.7h5.7     c0.3,0,0.6,0.1,0.8,0.3c0.2,0.2,0.3,0.5,0.3,0.8v1.6c0,0.3-0.1,0.6-0.3,0.8c-0.2,0.2-0.5,0.3-0.8,0.3h-5.7v11.8     c0,1.4,0.2,2.6,0.7,3.4c0.5,0.8,1.4,1.2,2.6,1.2h2.8c0.3,0,0.6,0.1,0.8,0.3s0.3,0.5,0.3,0.8v1.7c0,0.3-0.1,0.6-0.3,0.8     s-0.5,0.3-0.8,0.3H1377.9z"></path>
			<path class="st2" d="M1393.6,247.2c-1.5,0-2.9-0.3-4.2-0.9s-2.3-1.4-3-2.5c-0.8-1-1.1-2.2-1.1-3.5c0-2.1,0.9-3.8,2.6-5.1     c1.7-1.3,4-2.1,6.7-2.5l6.9-1v-1.3c0-1.5-0.4-2.6-1.3-3.5c-0.8-0.8-2.2-1.2-4.1-1.2c-1.4,0-2.5,0.3-3.3,0.8     c-0.8,0.6-1.4,1.3-1.8,2.1c-0.2,0.5-0.5,0.7-1,0.7h-2.1c-0.3,0-0.6-0.1-0.8-0.3c-0.2-0.2-0.3-0.4-0.3-0.7c0-0.5,0.2-1,0.5-1.7     s0.9-1.3,1.6-2c0.7-0.6,1.7-1.2,2.8-1.6c1.2-0.4,2.6-0.7,4.2-0.7c1.8,0,3.4,0.2,4.6,0.7c1.3,0.5,2.2,1.1,3,1.9     c0.7,0.8,1.2,1.7,1.6,2.7c0.3,1,0.5,2,0.5,3.1v14.9c0,0.3-0.1,0.6-0.3,0.8c-0.2,0.2-0.5,0.3-0.8,0.3h-2.1c-0.3,0-0.6-0.1-0.8-0.3     c-0.2-0.2-0.3-0.5-0.3-0.8v-2c-0.4,0.6-0.9,1.1-1.6,1.6c-0.7,0.5-1.5,1-2.5,1.3C1396.3,247,1395.1,247.2,1393.6,247.2z      M1394.6,243.7c1.3,0,2.4-0.3,3.5-0.8c1-0.5,1.9-1.4,2.5-2.5c0.6-1.1,0.9-2.6,0.9-4.3v-1.3l-5.3,0.8c-2.2,0.3-3.8,0.8-4.9,1.5     c-1.1,0.7-1.7,1.6-1.7,2.7c0,0.9,0.3,1.6,0.8,2.1c0.5,0.6,1.1,1,1.9,1.3C1392.9,243.6,1393.7,243.7,1394.6,243.7z"></path>
			<path class="st2" d="M1413.8,246.7c-0.3,0-0.6-0.1-0.8-0.3c-0.2-0.2-0.3-0.5-0.3-0.8v-30.5c0-0.3,0.1-0.6,0.3-0.8     c0.2-0.2,0.5-0.3,0.8-0.3h2.2c0.3,0,0.6,0.1,0.8,0.3c0.2,0.2,0.3,0.5,0.3,0.8v30.5c0,0.3-0.1,0.6-0.3,0.8     c-0.2,0.2-0.4,0.3-0.8,0.3H1413.8z"></path>
		</g>
	</g>
</g>
</svg>
